<?xml version="1.0" encoding="UTF-8" standalone="no"?>
<!-- Created with Inkscape (http://www.inkscape.org/) -->

<svg
   width="71.333359mm"
   height="10.57691mm"
   viewBox="0 0 71.333359 10.57691"
   version="1.1"
   id="svg1"
   xml:space="preserve"
   sodipodi:docname="balansi-logo.svg"
   inkscape:version="1.4.4 (dcaf3e7, 2026-05-05)"
   xmlns:inkscape="http://www.inkscape.org/namespaces/inkscape"
   xmlns:sodipodi="http://sodipodi.sourceforge.net/DTD/sodipodi-0.dtd"
   xmlns="http://www.w3.org/2000/svg"
   xmlns:svg="http://www.w3.org/2000/svg"><sodipodi:namedview
     id="namedview1"
     pagecolor="#ffffff"
     bordercolor="#000000"
     borderopacity="0.25"
     inkscape:showpageshadow="2"
     inkscape:pageopacity="0.0"
     inkscape:pagecheckerboard="0"
     inkscape:deskcolor="#d1d1d1"
     inkscape:document-units="mm"
     inkscape:zoom="3.2640175"
     inkscape:cx="134.8032"
     inkscape:cy="20.067294"
     inkscape:window-width="2236"
     inkscape:window-height="1198"
     inkscape:window-x="2555"
     inkscape:window-y="768"
     inkscape:window-maximized="0"
     inkscape:current-layer="layer1" /><defs
     id="defs1" /><g
     id="layer1"
     transform="translate(-29.702347,-42.345918)"><g
       style="fill:#d87263"
       id="g1"
       transform="matrix(0.01322917,0,0,0.01322917,28.624147,53.987583)"><path
         d="m 478,-449 91,-55 91,55 -24,-104 80,-69 -105,-9 -42,-98 -42,98 -105,9 80,69 z m 205,251 h 123 q 0,21 -15.5,35.5 Q 775,-148 753,-146 L 213,-81 Q 188,-78 168.5,-92.5 149,-107 146,-132 L 82,-630 q -3,-25 12.07,-44.96 15.07,-19.97 39.93,-23.04 l 64,-7 v 61 l -57,6 65,498 z m -365,-60 q -24,0 -42,-18 -18,-18 -18,-42 v -502 q 0,-24 18,-42 18,-18 42,-18 h 502 q 24,0 42,18 18,18 18,42 v 502 q 0,24 -18,42 -18,18 -42,18 z m 0,-60 H 820 V -820 H 318 Z m 251,-251 z m -363,429 z"
         id="path1" /></g><path
       style="font-weight:600;font-size:10.5833px;font-family:Trirong;-inkscape-font-specification:'Trirong Semi-Bold';fill:#545454;stroke-width:0.264583"
       d="m 47.018526,51.136816 q -0.603249,0 -1.068914,-0.243416 -0.455082,-0.253999 -0.656164,-0.634998 -0.137583,0.507998 -0.243416,0.772581 h -0.941914 v -6.942645 q -0.433915,-0.09525 -0.730247,-0.201082 v -0.105833 l 2.127243,-0.211666 v 2.719908 q 0.656164,-0.624415 1.725078,-0.624415 0.677331,0 1.227662,0.306916 0.550332,0.306915 0.867831,0.89958 0.317499,0.582082 0.317499,1.396996 0,1.471078 -0.687915,2.169576 -0.687914,0.698498 -1.936743,0.698498 z m -0.179917,-0.465665 q 0.751415,0 1.079497,-0.634998 0.338666,-0.645581 0.338666,-1.714495 0,-1.079496 -0.349249,-1.629828 -0.349249,-0.550331 -1.111247,-0.550331 -0.380999,0 -0.730247,0.201082 -0.349249,0.201083 -0.560915,0.486832 v 2.402409 q 0,0.603248 0.349249,1.02658 0.359832,0.412749 0.984246,0.412749 z m 5.185817,0.465665 q -1.809744,0 -1.809744,-1.545162 0,-0.83608 0.592664,-1.206496 0.592665,-0.370415 1.566329,-0.370415 h 1.418162 v -0.772581 q 0,-0.571498 -0.338666,-0.836081 -0.328082,-0.264582 -0.920747,-0.264582 -0.423332,0 -0.888997,0.126999 -0.455082,0.127 -0.836081,0.317499 l -0.08467,-0.402165 q 0.465665,-0.243416 1.047747,-0.380999 0.582081,-0.137583 1.195912,-0.137583 1.026581,0 1.619245,0.412749 0.603248,0.412748 0.603248,1.100663 v 3.397239 q 0.402166,0.08467 0.719665,0.179916 v 0.116416 l -2.11666,0.201083 v -0.709081 q -0.359832,0.391582 -0.825498,0.582082 -0.455081,0.190499 -0.941913,0.190499 z m 0.529165,-0.497415 q 0.338665,0 0.698498,-0.222249 0.359832,-0.22225 0.539748,-0.539749 v -1.396995 h -1.09008 q -0.550332,0 -0.836081,0.296332 -0.275165,0.285749 -0.275165,0.804331 0,0.539748 0.253999,0.804331 0.264582,0.253999 0.709081,0.253999 z m 3.704157,0.232832 q 0.222249,-0.07408 0.836081,-0.222249 v -6.561646 q -0.433916,-0.09525 -0.730248,-0.201082 v -0.105833 l 2.127243,-0.211666 v 7.09081 q 0.465665,0.07408 0.836081,0.211666 v 0.15875 h -3.069157 z m 5.418655,0.264583 q -1.809744,0 -1.809744,-1.545162 0,-0.83608 0.592664,-1.206496 0.592665,-0.370415 1.566329,-0.370415 h 1.418162 v -0.772581 q 0,-0.571498 -0.338666,-0.836081 -0.328082,-0.264582 -0.920747,-0.264582 -0.423332,0 -0.888997,0.126999 -0.455082,0.127 -0.836081,0.317499 l -0.08467,-0.402165 q 0.465665,-0.243416 1.047747,-0.380999 0.582081,-0.137583 1.195913,-0.137583 1.02658,0 1.619244,0.412749 0.603248,0.412748 0.603248,1.100663 v 3.397239 q 0.402166,0.08467 0.719665,0.179916 v 0.116416 l -2.11666,0.201083 v -0.709081 q -0.359832,0.391582 -0.825497,0.582082 -0.455082,0.190499 -0.941914,0.190499 z m 0.529165,-0.497415 q 0.338665,0 0.698498,-0.222249 0.359832,-0.22225 0.539748,-0.539749 v -1.396995 h -1.09008 q -0.550332,0 -0.836081,0.296332 -0.275165,0.285749 -0.275165,0.804331 0,0.539748 0.253999,0.804331 0.264582,0.253999 0.709081,0.253999 z m 9.800138,0.02117 q 0.529165,0.08467 0.825497,0.211666 v 0.15875 h -2.98449 v -0.15875 q 0.476248,-0.169332 0.761997,-0.222249 v -3.418406 q 0,-1.090079 -0.984246,-1.090079 -0.349249,0 -0.751415,0.190499 -0.391582,0.179916 -0.730247,0.571498 v 3.757071 q 0.433915,0.07408 0.83608,0.211666 v 0.15875 h -3.069157 v -0.15875 q 0.444499,-0.169332 0.836081,-0.222249 v -4.476736 q -0.433915,-0.09525 -0.730248,-0.201082 v -0.105833 l 2.127244,-0.211666 v 0.761997 q 0.370415,-0.338665 0.878414,-0.539748 0.507998,-0.211666 1.090079,-0.211666 0.846664,0 1.365246,0.402165 0.529165,0.391583 0.529165,1.100664 z m 3.735913,0.476249 q -0.740831,0 -1.365246,-0.190499 -0.613831,-0.1905 -0.952497,-0.497416 l 0.08467,-1.301745 h 0.306916 q 0.0635,0.169332 0.105833,0.507998 0.04233,0.338666 0.05292,0.613831 0.211666,0.179916 0.539748,0.296333 0.328082,0.105833 0.719664,0.105833 0.592665,0 0.952497,-0.253999 0.370416,-0.264583 0.370416,-0.730248 0,-0.253999 -0.169333,-0.423332 -0.169333,-0.179916 -0.423332,-0.296332 -0.243416,-0.116417 -0.698498,-0.275166 -0.560915,-0.1905 -0.93133,-0.370416 -0.359832,-0.179916 -0.613832,-0.497415 -0.253999,-0.317499 -0.253999,-0.804331 0,-0.656164 0.613832,-1.005413 0.613831,-0.349249 1.534578,-0.349249 1.333496,0 2.042577,0.603248 l -0.09525,1.111247 h -0.317499 q -0.0635,-0.169333 -0.105833,-0.433916 -0.03175,-0.264582 -0.03175,-0.518581 -0.444498,-0.306916 -1.195913,-0.306916 -0.486831,0 -0.783164,0.169333 -0.296332,0.169333 -0.296332,0.539748 0,0.370416 0.317499,0.582081 0.317499,0.201083 0.984247,0.433916 0.582081,0.211666 0.941913,0.402165 0.359833,0.179916 0.613832,0.507999 0.253999,0.328082 0.253999,0.825497 0,0.783164 -0.624415,1.174746 -0.624414,0.380999 -1.576911,0.380999 z M 79.9961,45.263085 q -0.328082,0 -0.539748,-0.201083 -0.201083,-0.201083 -0.201083,-0.518582 0,-0.317499 0.201083,-0.518581 0.211666,-0.211666 0.539748,-0.211666 0.328083,0 0.539749,0.211666 0.211666,0.201082 0.211666,0.518581 0,0.317499 -0.211666,0.518582 -0.211666,0.201083 -0.539749,0.201083 z m -1.449912,5.609148 q 0.1905,-0.0635 0.836081,-0.222249 v -4.455569 q -0.317499,-0.05292 -0.730248,-0.190499 v -0.105833 l 2.127244,-0.211666 v 4.97415 q 0.465665,0.09525 0.83608,0.211666 v 0.15875 h -3.069157 z m 4.698988,0.264583 q -0.359833,0 -0.571499,-0.211666 -0.211666,-0.222249 -0.211666,-0.560915 0,-0.338665 0.211666,-0.550331 0.211666,-0.22225 0.571499,-0.22225 0.349248,0 0.560914,0.22225 0.211666,0.211666 0.211666,0.550331 0,0.338666 -0.211666,0.560915 -0.211666,0.211666 -0.560914,0.211666 z m 11.048966,-0.476249 q 0.444498,0.07408 0.836081,0.211666 v 0.15875 h -2.995074 v -0.15875 q 0.05292,-0.02117 0.285749,-0.105833 0.243416,-0.08467 0.476248,-0.116416 v -3.418406 q 0,-1.090079 -0.984247,-1.090079 -0.317499,0 -0.645581,0.190499 -0.317499,0.190499 -0.603248,0.550332 0.02117,0.190499 0.02117,0.285749 v 3.492488 q 0.412748,0.0635 0.751414,0.211666 v 0.15875 H 88.61091 v -0.15875 q 0.05292,-0.02117 0.285749,-0.105833 0.243416,-0.08467 0.455082,-0.116416 v -3.418406 q 0,-0.592664 -0.253999,-0.83608 -0.243416,-0.253999 -0.687915,-0.253999 -0.317499,0 -0.656164,0.190499 -0.328083,0.179916 -0.624415,0.539748 v 3.788821 q 0.433915,0.07408 0.836081,0.211666 v 0.15875 h -3.069157 v -0.15875 q 0.444498,-0.169332 0.83608,-0.222249 v -4.476736 q -0.433915,-0.09525 -0.730247,-0.201082 v -0.105833 l 2.127243,-0.211666 v 0.730247 q 0.317499,-0.317499 0.751414,-0.518581 0.433916,-0.201083 0.952497,-0.201083 0.624415,0 1.068914,0.232833 0.455081,0.222249 0.645581,0.634998 0.328082,-0.391582 0.793747,-0.624415 0.465665,-0.243416 1.05833,-0.243416 0.846664,0 1.365246,0.402165 0.529165,0.391583 0.529165,1.100664 z m 6.741568,-2.190743 h -4.011073 q 0.02117,0.952497 0.476248,1.587495 0.465666,0.634998 1.354663,0.634998 0.433915,0 0.920747,-0.148166 0.497415,-0.148166 0.867835,-0.412748 l 0.13758,0.338665 q -0.33867,0.285749 -0.941915,0.476249 -0.592665,0.190499 -1.291163,0.190499 -0.89958,0 -1.566328,-0.338666 -0.656165,-0.338665 -1.015997,-0.952497 -0.349249,-0.624414 -0.349249,-1.439328 0,-1.312329 0.751414,-2.021411 0.761998,-0.719664 2.11666,-0.719664 0.857248,0 1.428746,0.349249 0.571502,0.338666 0.846662,0.910164 0.27517,0.560915 0.27517,1.259412 z m -1.217082,-0.465665 q 0,-0.423332 -0.127,-0.846664 -0.126999,-0.433915 -0.423332,-0.719664 -0.296332,-0.296332 -0.77258,-0.296332 -0.656165,0 -1.015997,0.529165 -0.359832,0.518581 -0.433916,1.333495 z"
       id="text1"
       aria-label="balansi.me" /></g></svg>
